<svg width="248" height="38" viewBox="0 0 248 38" fill="none" xmlns="http://www.w3.org/2000/svg">
<path d="M79.6064 6.9005H52.8535V25.5948V33.4138H59.3102V25.5948V12.8603H78.4052C79.8066 12.8603 80.9327 14.0573 80.9327 15.4836V16.9863C80.9327 18.438 79.8066 19.6096 78.4052 19.6096H62.889V25.5693H79.1559C80.3822 25.5693 81.5585 25.2892 82.5845 24.7798C85.4375 23.4299 87.4145 20.4246 87.4145 16.9608V15.4581C87.4145 10.8737 83.9359 7.1043 79.6064 6.875V6.9005Z" fill="#8080FF"/>
<path d="M98.3239 6.90039H91.8672V33.4137H98.3239V6.90039Z" fill="#8080FF"/>
<path d="M119.975 17.1899H101.855V23.2516H119.975V33.4137H126.456V6.90039H119.975V17.1899Z" fill="#8080FF"/>
<path d="M201.782 26.6644H201.081C200.581 26.6644 200.156 26.4607 199.83 26.0532L199.154 25.2381L187.443 10.6953L186.316 9.29449C185.039 7.71539 183.338 6.90039 181.361 6.90039H173.428V33.4137H179.884V13.6243H180.585C181.085 13.6243 181.511 13.828 181.836 14.2355L182.512 15.0505L194.225 29.5933L195.351 30.9941C196.627 32.5732 198.329 33.3882 200.306 33.3882H208.239V6.90039H201.782V26.6899V26.6644Z" fill="#8080FF"/>
<path d="M239.473 6.9005H212.695V33.4138H239.473C243.753 33.4138 247.281 29.7717 247.281 25.2892V14.9997C247.281 10.5426 243.777 6.875 239.473 6.875V6.9005ZM240.799 24.8817C240.799 26.3079 239.673 27.454 238.322 27.454H219.152V12.8603H238.322C239.673 12.8603 240.799 14.0318 240.799 15.4326V24.8817Z" fill="#8080FF"/>
<path d="M152.357 16.5033L149.929 19.4322L147.502 16.5033L141.82 9.70312H133.262L135.064 11.8425L141.996 20.1454L146.275 25.2901L146.725 25.825V33.4147H153.182V25.825L153.633 25.2901L157.912 20.1454L166.296 10.1106L166.621 9.70312H158.063L152.381 16.5033H152.357Z" fill="#8080FF"/>
<path d="M166.872 4.15039H133.137V7.02836H166.872V4.15039Z" fill="#8080FF"/>
<path d="M12.4616 17.3194C12.4867 17.2684 12.5116 17.243 12.5367 17.192L13.6628 14.3904C13.7879 14.1103 13.6628 13.7792 13.3626 13.6518L5.20405 10.0862C4.92873 9.95875 4.60338 10.0862 4.50326 10.3918L3.37712 13.1934C3.25198 13.4736 3.37712 13.8047 3.67743 13.932L8.60761 16.0969L2.57628 31.1236C1.62529 31.582 0.974609 32.5499 0.974609 33.696C0.974609 34.8421 2.20089 36.523 3.70246 36.523C5.20405 36.523 6.43035 35.2496 6.43035 33.696C6.43035 32.1424 6.35518 33.0083 6.25515 32.7027L12.4365 17.3194H12.4616Z" fill="#8080FF"/>
<path d="M3.727 25.698L7.13058 17.2677C7.25567 16.9621 7.13058 16.631 6.8302 16.5037L4.20251 15.3576C3.90219 15.2302 3.57685 15.3576 3.45172 15.6632L0.0481662 24.0934C-0.0769592 24.3991 0.0481664 24.7302 0.348481 24.8575L2.97622 26.0036C3.27654 26.131 3.60188 26.0036 3.727 25.698Z" fill="#8080FF"/>
<path d="M32.3553 31.3007C32.03 31.3007 31.7046 31.3771 31.4044 31.479L16.639 25.0353C16.5889 25.0099 16.5638 24.9844 16.5138 24.9589L13.836 23.7873C13.5608 23.66 13.2354 23.7873 13.1353 24.093L9.73174 32.5742C9.60666 32.8543 9.73174 33.1854 10.032 33.3128L12.7098 34.4843C12.9852 34.6117 13.3105 34.4843 13.4106 34.1787L15.4878 29.034L29.9028 35.3248C30.3282 36.2926 31.2792 36.9803 32.3804 36.9803C33.4815 36.9803 35.1082 35.7069 35.1082 34.1532C35.1082 32.5996 33.8819 31.3262 32.3804 31.3262L32.3553 31.3007Z" fill="#8080FF"/>
<path d="M24.6983 34.1283L16.6149 30.5881C16.3146 30.4608 15.9893 30.5881 15.8641 30.8938L14.763 33.6444C14.6379 33.95 14.763 34.2811 15.0633 34.4085L23.1467 37.9487C23.4471 38.076 23.7723 37.9487 23.8975 37.643L24.9986 34.8924C25.1238 34.5868 24.9986 34.2557 24.6983 34.1283Z" fill="#8080FF"/>
<path d="M24.6967 21.3424C24.6717 21.3933 24.6466 21.4188 24.6216 21.4697L23.4954 24.2713C23.3703 24.5515 23.4954 24.8826 23.7957 25.0099L31.9543 28.5756C32.2295 28.7029 32.5549 28.5756 32.655 28.27L33.7812 25.4684C33.9063 25.1882 33.7812 24.8571 33.4809 24.7298L28.5507 22.5649L34.582 7.53815C35.533 7.07965 36.1836 6.11184 36.1836 4.96573C36.1836 3.81962 34.9574 2.13867 33.4558 2.13867C31.9543 2.13867 30.728 3.41212 30.728 4.96573C30.728 6.51934 30.8031 5.65339 30.9032 5.95902L24.7217 21.3424H24.6967Z" fill="#8080FF"/>
<path d="M36.8107 13.8045L34.1829 12.6584C33.8826 12.5311 33.5573 12.6584 33.4321 12.9641L30.0287 21.3943C29.9035 21.6999 30.0287 22.031 30.3289 22.1584L32.9566 23.3045C33.257 23.4318 33.5824 23.3045 33.7074 22.9989L37.086 14.5686C37.2111 14.263 37.086 13.9319 36.7857 13.8045H36.8107Z" fill="#8080FF"/>
<path d="M4.80366 6.69716C5.129 6.69716 5.45434 6.62076 5.75463 6.51889L20.5201 12.9626C20.5701 12.9881 20.5952 13.0135 20.6452 13.039L23.323 14.2106C23.5982 14.3379 23.9236 14.2106 24.0237 13.905L27.4272 5.42373C27.5524 5.14357 27.4272 4.81247 27.127 4.68512L24.4492 3.51355C24.1738 3.3862 23.8485 3.51355 23.7485 3.81918L21.6712 8.96396L7.25625 2.67307C6.83078 1.70525 5.87981 1.01758 4.7786 1.01758C3.67748 1.01758 2.05078 2.29103 2.05078 3.84465C2.05078 5.39826 3.27707 6.67166 4.7786 6.67166L4.80366 6.69716Z" fill="#8080FF"/>
<path d="M12.4872 3.86938L20.5706 7.40956C20.8709 7.53696 21.1963 7.40956 21.3213 7.10396L22.4226 4.35329C22.5476 4.04766 22.4226 3.71657 22.1223 3.58922L14.0388 0.0490187C13.7385 -0.0783213 13.4131 0.0490187 13.288 0.354649L12.1868 3.10531C12.0617 3.41094 12.1868 3.74204 12.4872 3.86938Z" fill="#8080FF"/>
</svg>
